Pantera - Vulgar Display Of Power - CD remaster by MC Lurken (a.k.a. Beavis39)


!!!!!!!!!!!!!THIS IS NOT AN OFFICIAL REMASTER, THIS IS A FAN RELEASE!!!!!!!!!!!!!!
!!!!!!!!!!!!!THIS IS NOT AN OFFICIAL REMASTER, THIS IS A FAN RELEASE!!!!!!!!!!!!!!
!!!!!!!!!!!!!THIS IS NOT AN OFFICIAL REMASTER, THIS IS A FAN RELEASE!!!!!!!!!!!!!!


Produced from the original CD, not the 20th anniversary remaster


1 - Mouth For War
2 - A New Level
3 - Walk
4 - Fucking Hostile
5 - This Love
6 - Rise
7 - No Good (Attack The Radical)
8 - Live In A Hole
9 - Regular People (Conceit)
10 - By Demons Be Driven
11 - Hollow


foobar2000 1.1.13 / Dynamic Range Meter 1.1.1
log date: 2012-07-03 06:10:31

--------------------------------------------------------------------------------
Analyzed: ? / ?
--------------------------------------------------------------------------------

DR         Peak         RMS     Duration Track
--------------------------------------------------------------------------------
DR11      -0.14 dB   -11.89 dB      3:57 ?-01 - Mouth For War
DR10      -0.12 dB   -11.47 dB      3:57 ?-02 - A New Level
DR11      -0.13 dB   -12.61 dB      5:15 ?-03 - Walk
DR9       -1.13 dB   -11.69 dB      2:49 ?-04 - Fucking Hostile
DR11      -0.12 dB   -14.28 dB      6:33 ?-05 - This Love
DR10      -0.32 dB   -12.56 dB      4:36 ?-06 - Rise
DR11      -0.28 dB   -12.36 dB      4:50 ?-07 - No Good (Attack The Radical)
DR10      -0.13 dB   -11.94 dB      5:00 ?-08 - Live In A Hole
DR11      -0.13 dB   -12.41 dB      5:27 ?-09 - Regular People (Conceit)
DR11      -0.12 dB   -12.25 dB      4:40 ?-10 - By Demons Be Driven
DR11      -0.56 dB   -12.89 dB      5:49 ?-11 - Hollow
--------------------------------------------------------------------------------

Number of tracks:  11
Official DR value: DR10

Samplerate:        44100 Hz
Channels:          2
Bits per sample:   16
Bitrate:           1411 kbps
Codec:             PCM



Absolutely my favorite metal band out of the 90's, I've seen these guys 8 times

Long live Dimebag Darrell

enjoy :)